<svg xmlns="http://www.w3.org/2000/svg" width="20.161" height="20.161" viewBox="0 0 20.161 20.161"><defs><style>.a{fill:#152636;}</style></defs><path class="a" d="M5.852,0A5.864,5.864,0,0,0,0,5.852v8.457a5.864,5.864,0,0,0,5.852,5.852h8.457a5.864,5.864,0,0,0,5.852-5.852V5.852A5.864,5.864,0,0,0,14.309,0Zm0,1.551h8.457a4.289,4.289,0,0,1,4.3,4.3v8.457a4.289,4.289,0,0,1-4.3,4.3H5.852a4.289,4.289,0,0,1-4.3-4.3V5.852A4.289,4.289,0,0,1,5.852,1.551ZM15.9,3.1a1.163,1.163,0,1,0,1.163,1.163A1.163,1.163,0,0,0,15.9,3.1ZM10.081,4.653a5.428,5.428,0,1,0,5.428,5.428A5.438,5.438,0,0,0,10.081,4.653Zm0,1.551A3.877,3.877,0,1,1,6.2,10.081,3.865,3.865,0,0,1,10.081,6.2Z"/></svg>