<svg xmlns="http://www.w3.org/2000/svg" xmlns:xlink="http://www.w3.org/1999/xlink" width="176.986" height="72.953" viewBox="0 0 176.986 72.953">
  <defs>
    <linearGradient id="linear-gradient" y1="0.5" x2="1" y2="0.5" gradientUnits="objectBoundingBox">
      <stop offset="0" stop-color="#e6001c"/>
      <stop offset="1" stop-color="#bc071c"/>
    </linearGradient>
    <linearGradient id="linear-gradient-3" x1="0.5" y1="0.446" x2="0.5" y2="0.964" xlink:href="#linear-gradient"/>
  </defs>
  <g id="Group_3" data-name="Group 3" transform="translate(-65.304 -35.434)">
    <g id="Group_1" data-name="Group 1" transform="translate(65.304 35.434)">
      <path id="Path_2" data-name="Path 2" d="M302.368,159.094l6.541,6.542,3.766,3.766a11.247,11.247,0,0,0,15.858,0l6.542-6.542a11.247,11.247,0,0,1-15.859,0l-3.765-3.766,3.765-3.766a11.247,11.247,0,0,1,15.859,0l-6.542-6.542a11.247,11.247,0,0,0-15.858,0Z" transform="translate(-262.122 -122.617)" fill="#152636" fill-rule="evenodd"/>
      <path id="Path_3" data-name="Path 3" d="M320.717,169.368l8.4,8.4a8.557,8.557,0,0,0,10.545,1.191,13.826,13.826,0,0,1-7.82-3.916l-5.674-5.674,5.674-5.674a13.824,13.824,0,0,1,7.82-3.916,8.556,8.556,0,0,0-10.545,1.191Z" transform="translate(-276.654 -132.892)" fill-rule="evenodd" fill="url(#linear-gradient)"/>
      <path id="Path_4" data-name="Path 4" d="M141.6,159.094l-6.541,6.542-3.766,3.766a11.247,11.247,0,0,1-15.858,0l-6.541-6.542a11.246,11.246,0,0,0,15.858,0l3.766-3.766-3.766-3.766a11.246,11.246,0,0,0-15.858,0l6.541-6.542a11.247,11.247,0,0,1,15.858,0Z" transform="translate(-108.888 -122.617)" fill="#152636" fill-rule="evenodd"/>
      <path id="Path_5" data-name="Path 5" d="M175.647,169.368l-8.4,8.4a8.557,8.557,0,0,1-10.545,1.191,13.829,13.829,0,0,0,7.821-3.916l5.674-5.674-5.674-5.674a13.828,13.828,0,0,0-7.821-3.916,8.556,8.556,0,0,1,10.545,1.191Z" transform="translate(-146.756 -132.892)" fill-rule="evenodd" fill="url(#linear-gradient)"/>
      <path id="Path_6" data-name="Path 6" d="M184.622,242l-3.766,3.766a11.247,11.247,0,0,1-15.858,0l-6.541-6.542a11.246,11.246,0,0,0,15.858,0l10.307-10.307,10.307,10.307a11.246,11.246,0,0,0,15.858,0l-6.541,6.542a11.247,11.247,0,0,1-15.858,0Z" transform="translate(-148.145 -188.667)" fill="#ba1228" fill-rule="evenodd"/>
      <path id="Path_7" data-name="Path 7" d="M184.622,102.985l-3.766-3.766a11.247,11.247,0,0,0-15.858,0l-6.541,6.542a11.246,11.246,0,0,1,15.858,0l10.307,10.307,10.307-10.307a11.246,11.246,0,0,1,15.858,0l-6.541-6.542a11.247,11.247,0,0,0-15.858,0Z" transform="translate(-148.145 -83.361)" fill="#ba1228" fill-rule="evenodd"/>
      <path id="Path_8" data-name="Path 8" d="M232.549,228.913l-6.541,6.542-3.766,3.766a11.247,11.247,0,0,0,0,15.859l6.541,6.541a11.246,11.246,0,0,1,0-15.858L232.549,242l3.766,3.766a11.247,11.247,0,0,1,0,15.858l6.541-6.541a11.247,11.247,0,0,0,0-15.859Z" transform="translate(-196.072 -188.667)" fill-rule="evenodd" fill="url(#linear-gradient-3)"/>
      <path id="Path_9" data-name="Path 9" d="M242.823,247.264l-8.4,8.4a8.556,8.556,0,0,0-1.191,10.546,13.826,13.826,0,0,1,3.916-7.821l5.674-5.674,5.674,5.674a13.83,13.83,0,0,1,3.916,7.821,8.557,8.557,0,0,0-1.191-10.546Z" transform="translate(-206.346 -203.201)" fill="#152636" fill-rule="evenodd"/>
      <path id="Path_10" data-name="Path 10" d="M232.549,68.141,226.007,61.6l-3.766-3.766a11.246,11.246,0,0,1,0-15.858l6.541-6.541a11.246,11.246,0,0,0,0,15.858l3.766,3.766,3.766-3.766a11.246,11.246,0,0,0,0-15.858l6.541,6.541a11.246,11.246,0,0,1,0,15.858Z" transform="translate(-196.072 -35.434)" fill-rule="evenodd" fill="url(#linear-gradient)"/>
      <path id="Path_11" data-name="Path 11" d="M242.823,102.192l8.4-8.4a8.556,8.556,0,0,0,1.191-10.545,13.83,13.83,0,0,1-3.916,7.821l-5.674,5.674-5.674-5.674a13.826,13.826,0,0,1-3.916-7.821,8.556,8.556,0,0,0,1.191,10.545Z" transform="translate(-206.346 -73.302)" fill="#152636" fill-rule="evenodd"/>
    </g>
    <g id="Group_2" data-name="Group 2" transform="translate(146.278 62.698)">
      <path id="Path_12" data-name="Path 12" d="M455.155,432.316a10.637,10.637,0,0,1-7.512,18.152h-4.264V429.187h4.264A10.245,10.245,0,0,1,455.155,432.316Zm-3.01,12.02a6.39,6.39,0,0,0-4.5-10.9V446.2A6.15,6.15,0,0,0,452.145,444.336Z" transform="translate(-362.272 -429.187)" fill="#152636"/>
      <path id="Path_13" data-name="Path 13" d="M165.712,429.187V446.2h8.5v4.264H161.448V429.187Z" transform="translate(-138.986 -429.187)" fill="#152636"/>
      <path id="Path_14" data-name="Path 14" d="M249.035,432.316a10.59,10.59,0,1,1-7.512-3.129A10.244,10.244,0,0,1,249.035,432.316Zm-12.02,3a6.343,6.343,0,1,0,4.508-1.881A6.17,6.17,0,0,0,237.015,435.32Z" transform="translate(-193.978 -429.187)" fill="#152636"/>
      <path id="Path_15" data-name="Path 15" d="M109.649,441.979l5.761-12.792h-4.555l-3.346,7.436Z" transform="translate(-96.268 -429.187)" fill="url(#linear-gradient)"/>
      <path id="Path_16" data-name="Path 16" d="M63.03,440.347l-.022.048-5.043-11.208h-4.5l9.109,20.278.449,1,2.168-4.814Z" transform="translate(-53.464 -429.187)" fill="#152636"/>
      <path id="Path_17" data-name="Path 17" d="M363.182,440.9a7.456,7.456,0,0,0-6.106-11.717h-.233v4.251h.233a3.195,3.195,0,0,1,0,6.39h-3.182v-6.39h.017v-4.251H349.63v21.281h4.264V442.68l5.439,7.789h5.2l-4.805-6.878A7.372,7.372,0,0,0,363.182,440.9Z" transform="translate(-288.024 -429.187)" fill="#152636"/>
    </g>
  </g>
</svg>
