<svg xmlns="http://www.w3.org/2000/svg" width="21.038" height="17.093" viewBox="0 0 21.038 17.093"><defs><style>.a{fill:#152636;}</style></defs><path class="a" d="M18.876,6.513a8.609,8.609,0,0,0,2.162-2.239h0a9.007,9.007,0,0,1-2.485.681,4.29,4.29,0,0,0,1.9-2.383,8.63,8.63,0,0,1-2.735,1.044,4.313,4.313,0,0,0-7.46,2.949,4.441,4.441,0,0,0,.1.984,12.211,12.211,0,0,1-8.89-4.512A4.313,4.313,0,0,0,2.79,8.8,4.263,4.263,0,0,1,.842,8.269v.047A4.333,4.333,0,0,0,4.3,12.554a4.289,4.289,0,0,1-1.131.142,3.807,3.807,0,0,1-.816-.074,4.355,4.355,0,0,0,4.03,3,8.67,8.67,0,0,1-5.348,1.839A8.157,8.157,0,0,1,0,17.408a12.146,12.146,0,0,0,6.616,1.935,12.191,12.191,0,0,0,12.26-12.83Z" transform="translate(0 -2.25)"/></svg>